<svg width="32" height="32" viewBox="0 0 32 32" fill="none" xmlns="http://www.w3.org/2000/svg">
<path d="M21.0969 10.2594C20.1716 9.43608 19.0604 8.84936 17.8587 8.54947C16.657 8.24959 15.4005 8.24548 14.1969 8.5375C14.4094 8.82188 15.8062 10.7219 17.0656 13.0375C19.8 12.0125 20.9562 10.4562 21.0969 10.2594V10.2594ZM17.3125 17.275C12.9781 18.7844 11.4188 21.7938 11.2812 22.075C12.5844 23.0906 14.2219 23.6969 16 23.6969C17.0656 23.6969 18.0812 23.4812 19.0031 23.0875C18.8875 22.4125 18.4437 20.0625 17.3625 17.2563L17.3125 17.275ZM18.8031 16.9031C19.8094 19.6656 20.2188 21.9156 20.2969 22.3844C22.0219 21.2187 23.25 19.3719 23.5906 17.2313C23.3281 17.15 21.2125 16.5188 18.8031 16.9031ZM16 2C8.26875 2 2 8.26875 2 16C2 23.7312 8.26875 30 16 30C23.7312 30 30 23.7312 30 16C30 8.26875 23.7312 2 16 2ZM16 25C11.0375 25 7 20.9625 7 16C7 11.0375 11.0375 7 16 7C20.9625 7 25 11.0375 25 16C25 20.9625 20.9625 25 16 25ZM17.6594 14.1812C17.8375 14.5469 18.0094 14.9187 18.1688 15.2937C18.225 15.425 18.2813 15.5563 18.3344 15.6906C20.8906 15.3688 23.4344 15.8844 23.6875 15.9375C23.6719 14.1219 23.0219 12.4563 21.9531 11.1469C21.7875 11.3688 20.5 13.0219 17.6594 14.1812V14.1812ZM15.5813 13.5C14.3063 11.2344 12.9344 9.33125 12.7312 9.05313C10.5812 10.0688 8.97188 12.05 8.475 14.4344C8.81875 14.4406 11.9875 14.4563 15.5813 13.5ZM16.5375 16.0781C16.6375 16.0469 16.7375 16.0156 16.8406 15.9875C16.6469 15.55 16.4375 15.1125 16.2188 14.6844C12.3812 15.8344 8.65313 15.7844 8.31875 15.7781C8.31563 15.8562 8.31563 15.9344 8.31563 16.0125C8.31563 17.9875 9.0625 19.7906 10.2906 21.1531C10.4625 20.8531 12.5719 17.3594 16.5375 16.0781V16.0781Z" fill="white"/>
</svg>
